#!OML:ASF H:\ManfredETheater\Project 1\Capture day 1\Session 1\subject.ASF
:FULLY-SPECIFIED
:DEGREES
302
root 2.77701 16.6765 -24.4201 -162.153 -6.44954 186.806
lowerback 11.5665 0.762442 9.28383
upperback 0.390673 2.1081 3.18769
thorax -5.86661 0.678107 -2.17627
lowerneck -20.9877 -2.8986 -1.82841
upperneck 6.73702 -3.59355 0.329432
head 5.41456 -1.85183 0.0131465
rclavicle 1.27222e-014 1.59028e-014
rhumerus -19.2027 20.3099 -79.0955
rradius 128.614
rwrist -10.563
rhand -24.0121 16.0231
rfingers 7.12502
rthumb 2.4657 -13.9424
lclavicle 1.27222e-014 1.59028e-014
lhumerus -85.5577 -4.47622 86.3979
lradius 100.32
lwrist 12.0567
lhand -25.2483 -8.0372
lfingers 7.12502
lthumb 1.27177 21.9388
rfemur 8.74955 2.68308 34.8767
rtibia 36.5254
rfoot 25.5347 -3.33738
rtoes 1.17185
lfemur -70.7608 0.875643 -16.5763
ltibia 62.4615
lfoot -11.874 -10.0742
ltoes -14.4799
303
root 2.80882 16.7084 -25.0735 -162.678 -7.15667 186.693
lowerback 11.715 0.517076 9.20094
upperback 0.564382 1.77353 3.1043
thorax -5.79845 0.524616 -2.16855
lowerneck -21.1314 -2.97776 -1.95467
upperneck 6.86779 -3.69549 0.635348
head 5.48777 -1.87865 0.116658
rclavicle 2.06736e-014 -2.38542e-014
rhumerus -21.2506 20.2193 -80.3668
rradius 126.509
rwrist -9.86866
rhand -23.9314 15.7199
rfingers 7.12502
rthumb 2.54358 -14.2447
lclavicle 2.06736e-014 -2.38542e-014
lhumerus -84.0975 -3.48924 86.3632
lradius 100.671
lwrist 11.6005
lhand -25.4047 -8.05884
lfingers 7.12502
lthumb 1.12067 21.918
rfemur 7.24527 1.70223 34.9777
rtibia 41.8565
rfoot 24.7036 -3.67674
rtoes 5.9085
lfemur -69.1007 1.0934 -17.8059
ltibia 60.1286
lfoot -11.2234 -10.4145
ltoes -15.67
304
root 2.84025 16.7371 -25.7228 -163.229 -7.75873 186.436
lowerback 11.9661 0.273687 8.93952
upperback 0.765263 1.42828 2.99133
thorax -5.76342 0.370151 -2.09164
lowerneck -21.2534 -3.03474 -2.08478
upperneck 6.93279 -3.76728 0.912505
head 5.53625 -1.89441 0.215661
rclavicle 8.34896e-015 3.97569e-015
rhumerus -23.524 19.9885 -81.8657
rradius 124.067
rwrist -9.31786
rhand -23.9304 15.4036
rfingers 7.12502
rthumb 2.54459 -14.561
lclavicle 8.34896e-015 3.97569e-015
lhumerus -82.2118 -2.54487 86.6473
lradius 100.92
lwrist 11.5149
lhand -25.5677 -8.19951
lfingers 7.12502
lthumb 0.96331 21.7781
rfemur 5.42492 0.42564 34.7215
rtibia 47.6265
rfoot 23.6364 -4.24232
rtoes 10.6039
lfemur -67.2342 1.42718 -19.1633
ltibia 58.4123
lfoot -10.7592 -10.67
ltoes -15.5801
305
root 2.87093 16.7645 -26.3699 -163.806 -8.23465 186.046
lowerback 12.3082 0.0504947 8.49502
upperback 0.985363 1.09222 2.85641
thorax -5.75902 0.2235 -1.9362
lowerneck -21.3459 -3.07338 -2.22502
upperneck 6.95788 -3.81038 1.15988
head 5.56689 -1.89959 0.310606
rclavicle 1.03368e-014 3.06128e-014
rhumerus -25.9472 19.5451 -83.4849
rradius 121.312
rwrist -8.98549
rhand -23.9626 15.0871
rfingers 7.12502
rthumb 2.51346 -14.8778
lclavicle 1.03368e-014 3.06128e-014
lhumerus -79.9359 -1.70434 87.2524
lradius 101.045
lwrist 11.7198
lhand -25.7167 -8.48803
lfingers 7.12502
lthumb 0.819329 21.4901
rfemur 3.36633 -0.983923 34.1385
rtibia 53.6035
rfoot 22.4822 -4.86895
rtoes 14.956
lfemur -65.1504 1.86817 -20.559
ltibia 57.3122
lfoot -10.5658 -10.7519
ltoes -14.619
306
root 2.89934 16.7907 -27.0159 -164.413 -8.5786 185.54
lowerback 12.7514 -0.141808 7.89756
upperback 1.20695 0.782182 2.70034
thorax -5.80531 0.0903741 -1.71944
lowerneck -21.3958 -3.09594 -2.37014
upperneck 6.96643 -3.82665 1.36807
head 5.58471 -1.89513 0.397477
rclavicle -9.74045e-015 2.98177e-014
rhumerus -28.4549 18.8404 -85.1185
rradius 118.251
rwrist -8.83043
rhand -24.0248 14.7715
rfingers 7.12502
rthumb 2.45339 -15.1941
lclavicle -9.74045e-015 2.98177e-014
lhumerus -77.3262 -1.03308 88.1583
lradius 101.03
lwrist 12.0604
lhand -25.8507 -8.88063
lfingers 7.12502
lthumb 0.689984 21.098
rfemur 1.12092 -2.4365 33.2544
rtibia 59.6249
rfoot 21.2002 -5.39215
rtoes 18.4841
lfemur -62.8431 2.387 -21.913
ltibia 56.7736
lfoot -10.7493 -10.7282
ltoes -12.4502
307
root 2.92425 16.814 -27.6606 -165.04 -8.81381 184.944
lowerback 13.2784 -0.306159 7.19841
upperback 1.42648 0.494663 2.52396
thorax -5.89446 -0.0323796 -1.46713
lowerneck -21.4141 -3.10329 -2.50753
upperneck 6.96112 -3.82061 1.53812
head 5.59194 -1.88283 0.473938
rclavicle 8.15017e-015 3.97569e-016
rhumerus -30.9467 17.8407 -86.6719
rradius 114.879
rwrist -8.79172
rhand -24.095 14.4819
rfingers 7.12502
rthumb 2.3856 -15.4845
lclavicle 8.15017e-015 3.97569e-016
lhumerus -74.4085 -0.580654 89.3035
lradius 100.857
lwrist 12.3433
lhand -25.9773 -9.34423
lfingers 7.12502
lthumb 0.567685 20.6348
rfemur -1.30259 -3.87521 32.1174
rtibia 65.5797
rfoot 19.7127 -5.74895
rtoes 21.2816
lfemur -60.331 2.92787 -23.1466
ltibia 56.6999
lfoot -11.4079 -10.4459
ltoes -9.20186
308
root 2.94515 16.8317 -28.3031 -165.679 -8.97494 184.256
lowerback 13.8934 -0.454223 6.4163
upperback 1.62445 0.215098 2.32619
thorax -6.04946 -0.15265 -1.18721
lowerneck -21.3914 -3.08567 -2.62281
upperneck 6.94176 -3.78242 1.66435
head 5.58639 -1.85788 0.537082
rclavicle -9.93923e-015 1.59028e-014
rhumerus -33.365 16.5461 -88.0676
rradius 111.2
rwrist -8.74871
rhand -24.1783 14.2266
rfingers 7.12502
rthumb 2.30513 -15.7407
lclavicle -9.93923e-015 1.59028e-014
lhumerus -71.2386 -0.379977 90.6235
lradius 100.513
lwrist 12.4197
lhand -26.1084 -9.80143
lfingers 7.12502
lthumb 0.441067 20.1779
rfemur -3.90036 -5.28455 30.7545
rtibia 71.4013
rfoot 17.9448 -5.94272
rtoes 23.4795
lfemur -57.6332 3.41557 -24.2329
ltibia 56.9763
lfoot -12.5859 -9.9154
ltoes -5.16552
309
root 2.96272 16.8411 -28.9422 -166.297 -9.07937 183.406
lowerback 14.5688 -0.5937 5.49403
upperback 1.79968 -0.081993 2.08104
thorax -6.25696 -0.279549 -0.869377
lowerneck -21.318 -3.03698 -2.70294
upperneck 6.88278 -3.7102 1.76106
head 5.55832 -1.81833 0.589845
rclavicle -1.27222e-014 -2.22639e-014
rhumerus -35.6447 14.983 -89.2527
rradius 107.225
rwrist -8.64052
rhand -24.2998 14.0281
rfingers 7.12502
rthumb 2.18779 -15.9404
lclavicle -1.27222e-014 -2.22639e-014
lhumerus -67.8349 -0.449013 92.0356
lradius 100.001
lwrist 12.2237
lhand -26.2732 -10.154
lfingers 7.12502
lthumb 0.281838 19.8256
rfemur -6.68423 -6.66146 29.1177
rtibia 77.0275
rfoot 15.8589 -6.03757
rtoes 25.2361
lfemur -54.7627 3.75901 -25.2322
ltibia 57.4512
lfoot -14.2117 -9.09825
ltoes -0.978741
310
root 2.97778 16.8323 -29.5733 -166.813 -9.14937 182.344
lowerback 15.2358 -0.731437 4.38749
upperback 1.93463 -0.420779 1.77696
thorax -6.49626 -0.421607 -0.495333
lowerneck -21.2059 -2.95306 -2.75038
upperneck 6.78189 -3.59907 1.83785
head 5.50895 -1.76124 0.635934
rclavicle -1.90833e-014 -1.51076e-014
rhumerus -37.7596 13.2074 -90.1793
rradius 102.992
rwrist -8.45371
rhand -24.5079 13.9042
rfingers 7.12502
rthumb 1.98685 -16.0663
lclavicle -1.90833e-014 -1.51076e-014
lhumerus -64.2148 -0.783418 93.466
lradius 99.3493
lwrist 11.8015
lhand -26.4923 -10.3707
lfingers 7.12502
lthumb 0.0702645 19.609
rfemur -9.76448 -8.02242 27.1836
rtibia 82.4534
rfoot 13.4117 -6.07298
rtoes 26.6107
lfemur -51.8569 3.86866 -26.2238
ltibia 58.0114
lfoot -16.1224 -8.01961
ltoes 2.71178
